Coordinates
version=1
nRows=38
nColumns=12
inDegrees=yes

Units are S.I. units (second, meters, Newtons, ...)
Angles are in degrees

endheader
time	SC_y	SC_z	SC_x	AC_y	AC_z	AC_x	GH_y	GH_z	GH_yy	EL_x	PS_y
       0.0              -22.36          4.033          64.24          40.46         -5.929          11.62          -9.74         -7.882          98.19           42.9          114.5
 0.0009729              -22.37          4.033          64.24          40.46         -5.929          11.62         -9.745         -7.874          98.16           42.9          114.5
  0.001946              -22.37          4.033          64.23          40.46          -5.93          11.62         -9.751         -7.866          98.13           42.9          114.5
  0.002919              -22.38          4.033          64.23          40.47          -5.93          11.62         -9.757         -7.858           98.1          42.89          114.5
  0.003892              -22.38          4.033          64.22          40.47         -5.931          11.62         -9.764         -7.849          98.06          42.89          114.5
  0.004865              -22.39          4.033          64.22          40.47         -5.932          11.62          -9.77         -7.839          98.03          42.89          114.5
  0.005838               -22.4          4.033          64.21          40.48         -5.932          11.62         -9.778         -7.828          97.99          42.89          114.5
  0.006811              -22.41          4.033          64.21          40.48         -5.933          11.62         -9.786         -7.817          97.95          42.88          114.5
  0.007784              -22.41          4.034           64.2          40.49         -5.934          11.62         -9.794         -7.805           97.9          42.88          114.5
  0.008757              -22.42          4.034           64.2          40.49         -5.935          11.62         -9.804         -7.792          97.86          42.87          114.5
  0.009729              -22.43          4.034          64.19           40.5         -5.936          11.62         -9.813         -7.779           97.8          42.87          114.5
    0.0107              -22.44          4.034          64.18           40.5         -5.937          11.62         -9.824         -7.764          97.75          42.87          114.6
   0.01168              -22.45          4.034          64.18          40.51         -5.938          11.61         -9.835         -7.748          97.69          42.86          114.6
   0.01265              -22.47          4.034          64.17          40.51         -5.939          11.61         -9.848         -7.731          97.63          42.86          114.6
   0.01362              -22.48          4.034          64.16          40.52          -5.94          11.61         -9.861         -7.712          97.56          42.85          114.6
   0.01459              -22.49          4.034          64.15          40.53         -5.942          11.61         -9.875         -7.692          97.48          42.85          114.6
   0.01557              -22.51          4.034          64.14          40.54         -5.943          11.61         -9.891          -7.67           97.4          42.84          114.6
   0.01654              -22.52          4.034          64.13          40.55         -5.945          11.61         -9.908         -7.646          97.31          42.83          114.6
   0.01751              -22.54          4.035          64.11          40.56         -5.946          11.61         -9.927         -7.619          97.21          42.83          114.6
   0.01849              -22.56          4.035           64.1          40.57         -5.948          11.61         -9.947         -7.591          97.11          42.82          114.6
   0.01946              -22.58          4.035          64.09          40.58          -5.95           11.6          -9.97         -7.559          96.99          42.81          114.6
   0.02043              -22.61          4.035          64.07          40.59         -5.953           11.6         -9.994         -7.525          96.86           42.8          114.6
    0.0214              -22.63          4.035          64.05          40.61         -5.955           11.6         -10.02         -7.486          96.72          42.79          114.6
   0.02238              -22.66          4.036          64.03          40.63         -5.958           11.6         -10.05         -7.444          96.56          42.78          114.6
   0.02335              -22.69          4.036          64.01          40.64         -5.961           11.6         -10.09         -7.397          96.39          42.76          114.6
   0.02432              -22.73          4.036          63.98          40.66         -5.965          11.59         -10.12         -7.344          96.19          42.75          114.6
    0.0253              -22.77          4.036          63.95          40.69         -5.969          11.59         -10.17         -7.285          95.97          42.73          114.7
   0.02627              -22.82          4.037          63.92          40.71         -5.973          11.59         -10.21         -7.219          95.73          42.71          114.7
   0.02724              -22.87          4.037          63.89          40.74         -5.978          11.58         -10.27         -7.144          95.45          42.69          114.7
   0.02822              -22.93          4.038          63.85          40.77         -5.984          11.58         -10.33         -7.059          95.14          42.67          114.7
   0.02919              -22.99          4.038           63.8          40.81         -5.991          11.57          -10.4         -6.962          94.78          42.64          114.7
   0.03016              -23.07          4.039          63.75          40.86         -5.998          11.56         -10.47          -6.85          94.36          42.61          114.7
   0.03113              -23.16           4.04          63.68          40.91         -6.007          11.56         -10.57         -6.722          93.88          42.57          114.8
   0.03211              -23.26           4.04          63.61          40.96         -6.017          11.55         -10.67         -6.572          93.33          42.53          114.8
   0.03308              -23.38          4.041          63.53          41.03         -6.028          11.54          -10.8         -6.397          92.68          42.48          114.8
   0.03405              -23.52          4.043          63.43          41.11         -6.042          11.53         -10.94         -6.191          91.92          42.42          114.9
   0.03503              -23.69          4.044          63.31          41.21         -6.059          11.51         -11.12         -5.946          91.01          42.35          114.9
     0.036              -23.89          4.046          63.17          41.32         -6.078           11.5         -11.33         -5.652          89.92          42.27          115.0
